<mxfile host="app.diagrams.net" modified="2024-06-21T15:12:22.955Z" agent="Mozilla/5.0 (Windows NT 10.0; Win64; x64) AppleWebKit/537.36 (KHTML, like Gecko) Chrome/126.0.0.0 Safari/537.36" version="24.6.0" etag="iZOiRD7i9Gx31-sY-Isk" type="github">
  <diagram name="PÃ¡gina-1" id="h-hKRYOIh-TmufAJl2OB">
    <mxGraphModel>
      <root>
        <mxCell id="0" />
        <mxCell id="1" parent="0" />
      </root>
    </mxGraphModel>
  </diagram>
</mxfile>
